{"title":"CASPERS SCARE SCHOOL IN  XVID BY WINKER","uid":5282735,"size":733819996,"categoryP":"video","categoryS":"movies","magnet":"?xt=urn:btih:1566bc16566f482e3848ab4011377a48a73d3121&amp;dn=CASPERS+SCARE+SCHOOL+IN++XVID+BY+WINKER&amp;tr=udp%3A%2F%2Ftracker.openbittorrent.com%3A80&amp;tr=udp%3A%2F%2Fopen.demonii.com%3A1337&amp;tr=udp%3A%2F%2Ftracker.coppersurfer.tk%3A6969&amp;tr=udp%3A%2F%2Fexodus.desync.com%3A6969","seeders":0,"leechers":2,"uploader":"alanwatson","files":-1,"time":1263606095,"description":"A School with Real Spirit!\n\nThe Friendly Ghost is back in his biggest adventure yet!\n\nCasper is sent back to school to become scary or else! While at Scare School Casper discovers a plot by the headmasters to take over the world. Join Casper and his friends on this journey to save the world and have some fun along the way.\n\n\nFormat                           : AVI\nFormat/Info                      : Audio Video Interleave\nFile size                        : 700 MiB\nDuration                         : 1h 15mn\nOverall bit rate                 : 1 296 Kbps\nWriting application              : FairUse Wizard - http://fairusewizard.com\nWriting library                  : The best and REALLY easy backup tool\n\nVideo\nID                               : 0\nFormat                           : MPEG-4 Visual\nFormat profile                   : AdvancedSimple@L5\nFormat settings, BVOP            : Yes\nFormat settings, QPel            : No\nFormat settings, GMC             : No warppoints\nFormat settings, Matrix          : Default (MPEG)\nMuxing mode                      : Packed bitstream\nCodec ID                         : XVID\nCodec ID/Hint                    : XviD\nDuration                         : 1h 15mn\nBit rate                         : 1 159 Kbps\nWidth                            : 672 pixels\nHeight                           : 368 pixels\nDisplay aspect ratio             : 16:9\nFrame rate                       : 25.000 fps\nResolution                       : 24 bits\nColorimetry                      : 4:2:0\nScan type                        : Progressive\nBits/(Pixel*Frame)               : 0.187\nStream size                      : 625 MiB (89%)\nWriting library                  : XviD 1.2.0.dev47 (UTC 2006-11-01)\n\nAudio\nID                               : 1\nFormat                           : MPEG Audio\nFormat version                   : Version 1\nFormat profile                   : Layer 3\nCodec ID                         : 55\nCodec ID/Hint                    : MP3\nDuration                         : 1h 15mn\nBit rate mode                    : Constant\nBit rate                         : 128 Kbps\nChannel(s)                       : 2 channels\nSampling rate                    : 48.0 KHz\nResolution                       : 16 bits\nStream size                      : 69.1 MiB (10%)\nAlignment                        : Aligned on interleaves\nInterleave, duration             : 40 ms (1.00 video frame)\nInterleave, preload duration     : 504 ms\n\n","torrent":{"xt":"urn:btih:1566bc16566f482e3848ab4011377a48a73d3121","amp;dn":"CASPERS+SCARE+SCHOOL+IN++XVID+BY+WINKER","amp;tr":["udp%3A%2F%2Ftracker.openbittorrent.com%3A80","udp%3A%2F%2Fopen.demonii.com%3A1337","udp%3A%2F%2Ftracker.coppersurfer.tk%3A6969","udp%3A%2F%2Fexodus.desync.com%3A6969"],"infoHash":"1566bc16566f482e3848ab4011377a48a73d3121","infoHashBuffer":{"type":"Buffer","data":[21,102,188,22,86,111,72,46,56,72,171,64,17,55,122,72,167,61,49,33]},"announce":[],"urlList":[]}}